<svg width="50" xmlns="http://www.w3.org/2000/svg" viewBox="0 0 261 254.56"><title>github_logo</title><path d="M396.5,76a130.51,130.51,0,0,0-41.25,254.33c6.52,1.19,8.91-2.84,8.91-6.28,0-3.11-.12-13.4-.18-24.29-36.29,7.89-44-15.39-44-15.39-5.94-15.07-14.49-19.08-14.49-19.08-11.86-8.09.9-7.93.9-7.93,13.1.91,20,13.45,20,13.45,11.65,19.94,30.55,14.18,38,10.83,1.19-8.41,4.56-14.18,8.28-17.43-29-3.3-59.44-14.5-59.44-64.5a50.52,50.52,0,0,1,13.42-35c-1.33-3.31-5.82-16.59,1.29-34.55,0,0,10.94-3.5,35.89,13.38a123.54,123.54,0,0,1,65.33,0c24.9-16.9,35.86-13.38,35.86-13.38,7.14,18,2.64,31.24,1.31,34.54a50.37,50.37,0,0,1,13.41,35c0,50.13-30.52,61.17-59.59,64.41,4.7,4,8.86,12,8.86,24.15,0,17.44-.18,31.51-.18,35.81,0,3.47,2.37,7.53,9,6.26A130.52,130.52,0,0,0,396.5,76Z" transform="translate(-266 -76.02)"/></svg>