<svg id="globe_icon" width="40"  xmlns="http://www.w3.org/2000/svg" viewBox="0 0 50 50"><defs><style>.cls-1{fill:#0000EE;}</style></defs><title>globe_icon</title><path class="cls-1" d="M512.83,340A24.86,24.86,0,0,0,488,364.83a24.83,24.83,0,1,0,49.65,0A24.85,24.85,0,0,0,512.83,340Zm9.53,23.37a33.91,33.91,0,0,0-1-6.78,35.9,35.9,0,0,0,7.86-2.91,19.7,19.7,0,0,1,3.37,9.7Zm-9.7,21.28h-.21a32,32,0,0,1-4.78-8.94,32.75,32.75,0,0,1,9.75-.09A38.27,38.27,0,0,1,512.66,384.65Zm.17-12.35a35.86,35.86,0,0,0-6,.52,32.86,32.86,0,0,1-.94-6.45h13.5a31,31,0,0,1-1,6.35A36.23,36.23,0,0,0,512.83,372.3Zm-19.75-8.93a19.7,19.7,0,0,1,3.37-9.7,36,36,0,0,0,7.36,2.79,36.09,36.09,0,0,0-.93,6.91Zm12.79,0a32.73,32.73,0,0,1,.89-6.28,36.23,36.23,0,0,0,11.65.08,30.91,30.91,0,0,1,1,6.2Zm6.8-18.36a38.09,38.09,0,0,1,4.84,9.26,33.15,33.15,0,0,1-9.92-.08,32.4,32.4,0,0,1,4.86-9.17Zm14.6,6.28a32.78,32.78,0,0,1-6.76,2.41,40.32,40.32,0,0,0-4-8.34A19.79,19.79,0,0,1,527.27,351.29Zm-18.85-5.78a35.35,35.35,0,0,0-3.81,8.06,32.85,32.85,0,0,1-6.23-2.28A19.81,19.81,0,0,1,508.42,345.51Zm-15.36,20.86h9.81a36.11,36.11,0,0,0,1,7.07,36,36,0,0,0-7.29,2.72A19.56,19.56,0,0,1,493.06,366.37Zm5.46,12.17a33.5,33.5,0,0,1,6.17-2.22,35.28,35.28,0,0,0,3.75,7.84A19.65,19.65,0,0,1,498.52,378.54Zm18,5.76a40.25,40.25,0,0,0,3.92-8.13,33,33,0,0,1,6.7,2.37A19.66,19.66,0,0,1,516.52,384.31Zm12.56-8.15a35.89,35.89,0,0,0-7.79-2.86,34.21,34.21,0,0,0,1.06-6.93h10.24A19.55,19.55,0,0,1,529.08,376.16Z" transform="translate(-488 -340)"/></svg>