<svg id="instagram_icon" width="40" xmlns="http://www.w3.org/2000/svg" viewBox="0 0 50 50"><defs><style>.cls-1{fill:#0000ff;}</style></defs><title>instagram_icon</title><path class="cls-1" d="M512.83,369.8a5,5,0,1,0-5-5A5,5,0,0,0,512.83,369.8Z" transform="translate(-488 -340)"/><polygon class="cls-1" points="35.68 18.75 35.68 14.58 35.68 13.96 35.05 13.96 30.89 13.97 30.91 18.76 35.68 18.75"/><path class="cls-1" d="M512.83,340a24.83,24.83,0,1,0,24.83,24.83A24.83,24.83,0,0,0,512.83,340ZM527,361.93v11.56a5.46,5.46,0,0,1-5.46,5.46H504.16a5.46,5.46,0,0,1-5.46-5.46V356.17a5.46,5.46,0,0,1,5.46-5.46h17.32a5.46,5.46,0,0,1,5.46,5.46h0Z" transform="translate(-488 -340)"/><path class="cls-1" d="M520.55,364.83a7.72,7.72,0,1,1-14.88-2.9h-4.22v11.56a2.71,2.71,0,0,0,2.71,2.7h17.32a2.71,2.71,0,0,0,2.71-2.7V361.93H520A7.62,7.62,0,0,1,520.55,364.83Z" transform="translate(-488 -340)"/></svg>