<svg height="20" xmlns="http://www.w3.org/2000/svg" xmlns:xlink="http://www.w3.org/1999/xlink" viewBox="0 0 24.64 34.02"><defs><style>.cls-1{fill:none;}.cls-2{clip-path:url(#clip-path);}.cls-3{fill:#ff5752;}.cls-4{fill:#db3b3d;}.cls-5{fill:#f0f0f0;}.cls-6{fill:#c4d9de;}</style><clipPath id="clip-path" transform="translate(-500 -347.98)"><rect class="cls-1" x="500" y="347.98" width="24.64" height="34.02"/></clipPath></defs><title>pin</title><g class="cls-2"><path class="cls-3" d="M511.49,381.63C511,381.11,500,368.73,500,360.3a12.32,12.32,0,0,1,24.64,0c0,8.43-11,20.81-11.49,21.33a1.11,1.11,0,0,1-1.65,0" transform="translate(-500 -347.98)"/><path class="cls-4" d="M524.64,360.3A12.33,12.33,0,0,0,512.32,348v34a1.11,1.11,0,0,0,.82-.37c.47-.52,11.49-12.9,11.49-21.33" transform="translate(-500 -347.98)"/><path class="cls-5" d="M512.32,366.5a6.2,6.2,0,1,1,6.2-6.2,6.2,6.2,0,0,1-6.2,6.2" transform="translate(-500 -347.98)"/><path class="cls-6" d="M512.32,354.11v12.4a6.2,6.2,0,1,0,0-12.4" transform="translate(-500 -347.98)"/></g></svg>