<svg height="20" xmlns="http://www.w3.org/2000/svg" xmlns:xlink="http://www.w3.org/1999/xlink" viewBox="0 0 34.02 34.02"><defs><style>.cls-1{fill:none;}.cls-2{clip-path:url(#clip-path);}.cls-3{fill:#b8e082;}.cls-4{fill:#70de57;}.cls-5{fill:#1c3d66;}</style><clipPath id="clip-path" transform="translate(-496 -347.98)"><rect class="cls-1" x="496" y="347.98" width="34.02" height="34.02"/></clipPath></defs><title>time</title><g class="cls-2"><path class="cls-3" d="M513,351.53A13.46,13.46,0,1,0,526.47,365,13.48,13.48,0,0,0,513,351.53M513,382a17,17,0,1,1,12-5,16.89,16.89,0,0,1-12,5" transform="translate(-496 -347.98)"/><path class="cls-4" d="M525,353a16.9,16.9,0,0,0-12-5v3.54a13.46,13.46,0,0,1,0,26.93V382a17,17,0,0,0,12-29" transform="translate(-496 -347.98)"/><path class="cls-5" d="M517.81,371.27a1.61,1.61,0,0,1-1-.38l-4.83-4.06a1.61,1.61,0,0,1-.57-1.24l0-9.31a1.61,1.61,0,0,1,1.61-1.61h0a1.61,1.61,0,0,1,1.6,1.62l0,8.56,4.25,3.57a1.61,1.61,0,0,1-1,2.84" transform="translate(-496 -347.98)"/></g></svg>